<svg width="74" height="74" viewBox="0 0 74 74" fill="none" xmlns="http://www.w3.org/2000/svg">
<g id="streamline:information-desk-customer">
<g id="Group">
<path id="Vector" d="M49.0723 18.5159C49.0723 19.641 49.2939 20.7552 49.7245 21.7947C50.1551 22.8343 50.7862 23.7788 51.5818 24.5744C52.3774 25.3701 53.322 26.0012 54.3615 26.4318C55.4011 26.8624 56.5152 27.084 57.6404 27.084C58.7656 27.084 59.8798 26.8624 60.9193 26.4318C61.9588 26.0012 62.9034 25.3701 63.699 24.5744C64.4946 23.7788 65.1257 22.8343 65.5563 21.7947C65.9869 20.7552 66.2085 19.641 66.2085 18.5159C66.2085 16.2434 65.3058 14.0641 63.699 12.4573C62.0922 10.8504 59.9128 9.94771 57.6404 9.94771C55.368 9.94771 53.1887 10.8504 51.5818 12.4573C49.975 14.0641 49.0723 16.2434 49.0723 18.5159Z" stroke="white" stroke-width="4" stroke-linecap="round" stroke-linejoin="round"/>
<path id="Vector_2" d="M44.786 44.2256V39.9441C44.786 36.5341 46.1406 33.2638 48.5519 30.8525C50.9631 28.4413 54.2335 27.0866 57.6435 27.0866C61.0535 27.0866 64.3239 28.4413 66.7351 30.8525C69.1463 33.2638 70.501 36.5341 70.501 39.9441V44.2256M34.8858 44.2361H70.501M19.0498 29.6634C21.4505 29.6634 23.7529 28.7097 25.4504 27.0122C27.148 25.3147 28.1016 23.0123 28.1016 20.6116C28.1016 18.2109 27.148 15.9086 25.4504 14.2111C23.7529 12.5135 21.4505 11.5598 19.0498 11.5598C16.6492 11.5598 14.3468 12.5135 12.6493 14.2111C10.9517 15.9086 9.99805 18.2109 9.99805 20.6116C9.99805 23.0123 10.9517 25.3147 12.6493 27.0122C14.3468 28.7097 16.6492 29.6634 19.0498 29.6634Z" stroke="white" stroke-width="4" stroke-linecap="round" stroke-linejoin="round"/>
<path id="Vector_3" d="M34.8863 45.5047C34.8863 41.304 33.2176 37.2754 30.2472 34.3051C27.2769 31.3348 23.2483 29.6661 19.0476 29.6661C14.847 29.6661 10.8183 31.3348 7.84802 34.3051C4.87769 37.2754 3.20898 41.304 3.20898 45.5047V52.2916H10.0011L12.2634 70.3899H25.8371L28.0994 52.2916H34.8863V45.5047Z" stroke="white" stroke-width="4" stroke-linecap="round" stroke-linejoin="round"/>
</g>
</g>
</svg>
