<svg width="74" height="74" viewBox="0 0 74 74" fill="none" xmlns="http://www.w3.org/2000/svg">
<g id="arcticons:adobe-experience-manager">
<path id="Vector" d="M59.3535 8.47917H14.6452C11.2394 8.47917 8.47852 11.2401 8.47852 14.6458V59.3542C8.47852 62.7599 11.2394 65.5208 14.6452 65.5208H59.3535C62.7593 65.5208 65.5202 62.7599 65.5202 59.3542V14.6458C65.5202 11.2401 62.7593 8.47917 59.3535 8.47917Z" stroke="white" stroke-width="5" stroke-linecap="round" stroke-linejoin="round"/>
<path id="Vector_2" d="M50.4902 30.0625C48.7525 30.0625 47.086 29.3722 45.8572 28.1434C44.6285 26.9147 43.9382 25.2481 43.9382 23.5104C43.9382 21.7727 43.2478 20.1061 42.0191 18.8774C40.7903 17.6486 39.1238 16.9583 37.3861 16.9583H36.6152C34.8775 16.9583 33.211 17.6486 31.9822 18.8774C30.7535 20.1061 30.0632 21.7727 30.0632 23.5104C30.0632 25.2481 29.3728 26.9147 28.1441 28.1434C26.9153 29.3722 25.2488 30.0625 23.5111 30.0625C21.7733 30.0625 20.1068 30.7528 18.878 31.9816C17.6493 33.2103 16.959 34.8769 16.959 36.6146V37.3854C16.959 39.1231 17.6493 40.7897 18.878 42.0184C20.1068 43.2472 21.7733 43.9375 23.5111 43.9375C25.2488 43.9375 26.9153 44.6278 28.1441 45.8566C29.3728 47.0853 30.0632 48.7519 30.0632 50.4896C30.0632 52.2273 30.7535 53.8938 31.9822 55.1226C33.211 56.3514 34.8775 57.0417 36.6152 57.0417H37.3861C39.1238 57.0417 40.7903 56.3514 42.0191 55.1226C43.2478 53.8938 43.9382 52.2273 43.9382 50.4896C43.9382 48.7519 44.6285 47.0853 45.8572 45.8566C47.086 44.6278 48.7525 43.9375 50.4902 43.9375C52.228 43.9375 53.8945 43.2472 55.1233 42.0184C56.352 40.7897 57.0423 39.1231 57.0423 37.3854V36.6146C57.0423 34.8769 56.352 33.2103 55.1233 31.9816C53.8945 30.7528 52.228 30.0625 50.4902 30.0625Z" stroke="white" stroke-width="3" stroke-linecap="round" stroke-linejoin="round"/>
<path id="Vector_3" d="M51.4448 41.6327C50.2162 40.404 49.526 38.7376 49.526 37C49.526 35.2624 50.2162 33.596 51.4448 32.3673C52.6733 31.1386 53.3635 29.4721 53.3635 27.7346C53.3635 25.997 52.6733 24.3306 51.4448 23.1019L50.899 22.5561C49.6703 21.3276 48.0039 20.6374 46.2663 20.6374C44.5287 20.6374 42.8623 21.3276 41.6336 22.5561C41.0252 23.1647 40.3028 23.6474 39.5078 23.9768C38.7128 24.3061 37.8607 24.4756 37.0001 24.4756C36.1396 24.4756 35.2875 24.3061 34.4924 23.9768C33.6974 23.6474 32.9751 23.1647 32.3666 22.5561C31.1379 21.3276 29.4715 20.6374 27.7339 20.6374C25.9964 20.6374 24.3299 21.3276 23.1012 22.5561L22.5555 23.1003C21.3269 24.3291 20.6367 25.9955 20.6367 27.733C20.6367 29.4706 21.3269 31.137 22.5555 32.3657C23.164 32.9742 23.6468 33.6965 23.9761 34.4916C24.3055 35.2866 24.475 36.1387 24.475 36.9992C24.475 37.8598 24.3055 38.7119 23.9761 39.5069C23.6468 40.3019 23.164 41.0243 22.5555 41.6327C21.3269 42.8614 20.6367 44.5278 20.6367 46.2654C20.6367 48.003 21.3269 49.6694 22.5555 50.8981L23.0997 51.4439C24.3284 52.6724 25.9948 53.3626 27.7324 53.3626C29.4699 53.3626 31.1364 52.6724 32.3651 51.4439C32.9735 50.8353 33.6959 50.3526 34.4909 50.0232C35.2859 49.6939 36.138 49.5244 36.9986 49.5244C37.8591 49.5244 38.7112 49.6939 39.5062 50.0232C40.3013 50.3526 41.0236 50.8353 41.632 51.4439C42.8608 52.6724 44.5272 53.3626 46.2648 53.3626C48.0023 53.3626 49.6687 52.6724 50.8975 51.4439L51.4432 50.8997C52.6718 49.6709 53.362 48.0045 53.362 46.267C53.362 44.5294 52.6718 42.863 51.4432 41.6342" stroke="white" stroke-width="3" stroke-linecap="round" stroke-linejoin="round"/>
</g>
</svg>
