<svg width="74" height="74" viewBox="0 0 74 74" fill="none" xmlns="http://www.w3.org/2000/svg">
<g id="carbon:ibm-cloud-projects">
<path id="Vector" d="M69.375 41.625H46.25V56.5823C46.2558 58.7709 46.8799 60.9134 48.0505 62.7627C49.2211 64.612 50.8904 66.093 52.8661 67.0348L57.8125 69.375L62.7589 67.0324C64.7346 66.0906 66.4039 64.6097 67.5745 62.7604C68.7451 60.9111 69.3692 58.7686 69.375 56.5799V41.625ZM57.8125 64.2551L54.8456 62.8514C53.6601 62.2869 52.6584 61.3989 51.9559 60.2896C51.2534 59.1804 50.8787 57.8952 50.875 56.5823V46.25H64.75V56.5823C64.7459 57.8948 64.371 59.1795 63.6685 60.2883C62.966 61.3971 61.9645 62.2848 60.7794 62.8491L57.8125 64.2551ZM39.3125 41.625H11.5625C10.3359 41.625 9.15949 42.1123 8.29213 42.9796C7.42478 43.847 6.9375 45.0234 6.9375 46.25V57.8125C6.9375 59.0391 7.42478 60.2155 8.29213 61.0829C9.15949 61.9502 10.3359 62.4375 11.5625 62.4375H39.3125V57.8125H11.5625V46.25H39.3125V41.625ZM62.4375 9.25H50.875C49.6484 9.25 48.472 9.73728 47.6046 10.6046C46.7373 11.472 46.25 12.6484 46.25 13.875V34.6875H50.875V13.875H62.4375V34.6875H67.0625V13.875C67.0625 12.6484 66.5752 11.472 65.7079 10.6046C64.8405 9.73728 63.6641 9.25 62.4375 9.25ZM34.6875 9.25H11.5625C10.3359 9.25 9.15949 9.73728 8.29213 10.6046C7.42478 11.472 6.9375 12.6484 6.9375 13.875V30.0625C6.9375 31.2891 7.42478 32.4655 8.29213 33.3329C9.15949 34.2002 10.3359 34.6875 11.5625 34.6875H34.6875C35.9141 34.6875 37.0905 34.2002 37.9579 33.3329C38.8252 32.4655 39.3125 31.2891 39.3125 30.0625V13.875C39.3125 12.6484 38.8252 11.472 37.9579 10.6046C37.0905 9.73728 35.9141 9.25 34.6875 9.25ZM11.5625 30.0625V13.875H34.6875V30.0625H11.5625Z" fill="white"/>
</g>
</svg>
